<svg version="1.1" id="Capa_1" xmlns="http://www.w3.org/2000/svg" xmlns:xlink="http://www.w3.org/1999/xlink" x="0px" y="0px"
	 viewBox="0 0 512 512" style="enable-background:new 0 0 512 512;" xml:space="preserve">
<style type="text/css">
	.st0{fill:#fff;}
</style>
<g>
	<g>
		<path class="st0" d="M404,0.2c8.3-1.1,15.5,1.4,21.7,7.6l71.5,72.1c3.6,3.3,6.7,7.5,9.2,12.7c2.5,5.2,4.2,10.4,4.9,15.4
			c0,0.4,0.1,1.4,0.3,3.3c0.2,1.8,0.3,4.2,0.3,7c0,6.9-1.2,18-3.5,33.3s-8.1,34.1-17.3,56.4c-9.2,22.2-23,47.4-41.5,75.6
			c-18.4,28.2-43.7,58.2-75.9,90c-24.9,25.3-48.8,46.3-71.5,62.9c-22.8,16.6-43.8,30-63.1,40.1c-19.3,10.1-36.9,17.7-52.6,22.8
			s-29.3,8.5-40.7,10.3s-20.3,2.5-26.8,2.2c-6.5-0.4-10.1-0.5-10.8-0.5c-5.1-0.7-10.2-2.3-15.4-4.9s-9.5-5.6-12.7-9.2L7.8,425.2
			c-5.1-5.1-7.6-10.8-7.6-17.3c0-4.7,1.4-8.9,4.1-12.5c2.7-3.6,6.1-6.7,10-9.2l110-58c5.8-3.3,12.1-4.2,19-2.7
			c6.9,1.4,12.6,4.5,17.3,9.2l26.6,26.6c0.7,0.7,1.9,1.4,3.5,1.9s3,0.8,4.1,0.8c7.6-1.4,16.3-4.7,26-9.8c8.7-4.3,19.2-11,31.7-20.1
			c12.5-9,26.8-21.9,43.1-38.5c16.6-16.3,29.5-30.7,38.8-43.4c9.2-12.6,16-23.2,20.3-31.7c4.3-8.5,7-15,7.9-19.5l1.4-6.8
			c0-0.7-0.3-1.9-0.8-3.5c-0.5-1.6-1.2-2.8-1.9-3.5l-31.4-30.9c-5.8-6.5-8.7-14.1-8.7-22.8c0-6.1,1.1-11,3.3-14.6v-0.5l61.8-104.6
			C390.8,6.2,396.7,1.7,404,0.2z"/>
	</g>
</g>
</svg>
