<svg id="Capa_1" xmlns="http://www.w3.org/2000/svg" viewBox="0 0 512 512"><style>.st0{fill:#fff}</style><path class="st0" d="M404 .2c8.3-1.1 15.5 1.4 21.7 7.6l71.5 72.1c3.6 3.3 6.7 7.5 9.2 12.7 2.5 5.2 4.2 10.4 4.9 15.4 0 .4.1 1.4.3 3.3.2 1.8.3 4.2.3 7 0 6.9-1.2 18-3.5 33.3s-8.1 34.1-17.3 56.4c-9.2 22.2-23 47.4-41.5 75.6-18.4 28.2-43.7 58.2-75.9 90-24.9 25.3-48.8 46.3-71.5 62.9-22.8 16.6-43.8 30-63.1 40.1-19.3 10.1-36.9 17.7-52.6 22.8s-29.3 8.5-40.7 10.3-20.3 2.5-26.8 2.2c-6.5-.4-10.1-.5-10.8-.5-5.1-.7-10.2-2.3-15.4-4.9s-9.5-5.6-12.7-9.2L7.8 425.2C2.7 420.1.2 414.4.2 407.9c0-4.7 1.4-8.9 4.1-12.5 2.7-3.6 6.1-6.7 10-9.2l110-58c5.8-3.3 12.1-4.2 19-2.7 6.9 1.4 12.6 4.5 17.3 9.2l26.6 26.6c.7.7 1.9 1.4 3.5 1.9s3 .8 4.1.8c7.6-1.4 16.3-4.7 26-9.8 8.7-4.3 19.2-11 31.7-20.1 12.5-9 26.8-21.9 43.1-38.5 16.6-16.3 29.5-30.7 38.8-43.4 9.2-12.6 16-23.2 20.3-31.7 4.3-8.5 7-15 7.9-19.5l1.4-6.8c0-.7-.3-1.9-.8-3.5s-1.2-2.8-1.9-3.5l-31.4-30.9c-5.8-6.5-8.7-14.1-8.7-22.8 0-6.1 1.1-11 3.3-14.6v-.5l61.8-104.6C390.8 6.2 396.7 1.7 404 .2z"/></svg>